<?xml version="1.0" encoding="UTF-8"?>
<svg width="296px" height="36px" viewBox="0 0 296 36" version="1.1" xmlns="http://www.w3.org/2000/svg" xmlns:xlink="http://www.w3.org/1999/xlink">
    <title>Group 4</title>
    <g id="Page-1" stroke="none" stroke-width="1" fill="none" fill-rule="evenodd">
        <g id="Group-4" transform="translate(0.224, 0)">
            <path d="M10.8244898,36 C8.55361781,36 6.61076067,35.6593692 4.99591837,34.9781076 C3.38107607,34.296846 2.15732839,33.4011132 1.32467532,32.2909091 C0.492022263,31.180705 0.0504638219,29.9695733 1.09626594e-14,28.6575139 C1.09626594e-14,28.4556586 0.0756957328,28.2727273 0.227087199,28.1087199 C0.378478664,27.9447124 0.567717996,27.8627087 0.794805195,27.8627087 L4.23896104,27.8627087 C4.51651206,27.8627087 4.74359926,27.9257885 4.92022263,28.0519481 C5.09684601,28.1781076 5.26085343,28.354731 5.4122449,28.5818182 C5.66456401,29.4397032 6.23858998,30.1588126 7.13432282,30.7391466 C8.03005566,31.3194805 9.26011132,31.6096475 10.8244898,31.6096475 C12.5907236,31.6096475 13.9217069,31.3131725 14.8174397,30.7202226 C15.7131725,30.1272727 16.161039,29.3135436 16.161039,28.2790353 C16.161039,27.5977737 15.9339518,27.0300557 15.4797774,26.5758813 C15.025603,26.1217069 14.3380334,25.7243043 13.4170686,25.3836735 C12.4961039,25.0430427 11.1272727,24.6330241 9.31057514,24.1536178 C6.33320965,23.4471243 4.15064935,22.5135436 2.76289425,21.3528757 C1.37513915,20.1922078 0.681261596,18.5269017 0.681261596,16.3569573 C0.681261596,14.8935065 1.08497217,13.5877551 1.89239332,12.4397032 C2.69981447,11.2916512 3.8541744,10.3896104 5.3554731,9.73358071 C6.8567718,9.07755102 8.60408163,8.74953618 10.5974026,8.74953618 C12.6916512,8.74953618 14.5020408,9.11539889 16.0285714,9.8471243 C17.555102,10.5788497 18.7157699,11.4935065 19.5105751,12.5910946 C20.3053803,13.6886827 20.7280148,14.7799629 20.7784787,15.8649351 C20.7784787,16.0667904 20.7027829,16.2497217 20.5513915,16.4137291 C20.4,16.5777365 20.2107607,16.6597403 19.9836735,16.6597403 L16.3881262,16.6597403 C15.8330241,16.6597403 15.4545455,16.4326531 15.2526902,15.9784787 C15.1265306,15.1710575 14.6345083,14.4961039 13.7766234,13.9536178 C12.9187384,13.4111317 11.8589981,13.1398887 10.5974026,13.1398887 C9.2096475,13.1398887 8.11836735,13.4048237 7.32356215,13.9346939 C6.52875696,14.464564 6.13135436,15.2341373 6.13135436,16.2434137 C6.13135436,16.9246753 6.33320965,17.4923933 6.73692022,17.9465677 C7.1406308,18.4007421 7.77142857,18.7981447 8.62931354,19.1387755 C9.48719852,19.4794063 10.7361781,19.8641929 12.3762523,20.2931354 C14.6218924,20.7977737 16.4070501,21.3654917 17.7317254,21.9962894 C19.0564007,22.6270872 20.0341373,23.4218924 20.6649351,24.380705 C21.2957328,25.3395176 21.6111317,26.5632653 21.6111317,28.0519481 C21.6111317,29.6920223 21.1632653,31.1113173 20.2675325,32.309833 C19.3717996,33.5083488 18.1102041,34.4230056 16.4827458,35.0538033 C14.8552876,35.6846011 12.9692022,36 10.8244898,36 Z" id="Path" fill="#323030" fill-rule="nonzero"></path>
            <path d="M36.5231911,36 C33.0916512,36 30.4296846,35.1294991 28.5372913,33.3884972 C26.644898,31.6474954 25.6987013,29.0107607 25.6987013,25.4782931 L25.6987013,10.0742115 C25.6987013,9.79666048 25.780705,9.56957328 25.9447124,9.39294991 C26.1087199,9.21632653 26.3294991,9.12801484 26.6070501,9.12801484 L30.0890538,9.12801484 C30.3666048,9.12801484 30.593692,9.21632653 30.7703154,9.39294991 C30.9469388,9.56957328 31.0352505,9.79666048 31.0352505,10.0742115 L31.0352505,25.4782931 C31.0352505,27.4716141 31.5083488,28.9729128 32.4545455,29.9821892 C33.4007421,30.9914657 34.7443414,31.4961039 36.4853432,31.4961039 C38.2263451,31.4961039 39.5699443,30.9914657 40.516141,29.9821892 C41.4623377,28.9729128 41.935436,27.4716141 41.935436,25.4782931 L41.935436,10.0742115 C41.935436,9.79666048 42.0237477,9.56957328 42.2003711,9.39294991 C42.3769944,9.21632653 42.6040816,9.12801484 42.8816327,9.12801484 L46.3636364,9.12801484 C46.6411874,9.12801484 46.8619666,9.21632653 47.025974,9.39294991 C47.1899814,9.56957328 47.2719852,9.79666048 47.2719852,10.0742115 L47.2719852,25.4782931 C47.2719852,29.0107607 46.3320965,31.6474954 44.4523191,33.3884972 C42.5725417,35.1294991 39.9294991,36 36.5231911,36 Z" id="Path" fill="#323030" fill-rule="nonzero"></path>
            <path d="M53.8575139,35.6215213 C53.6051948,35.6215213 53.3907236,35.5332096 53.2141002,35.3565863 C53.0374768,35.1799629 52.9491651,34.9654917 52.9491651,34.7131725 L52.9491651,10.0742115 C52.9491651,9.79666048 53.0311688,9.56957328 53.1951763,9.39294991 C53.3591837,9.21632653 53.5799629,9.12801484 53.8575139,9.12801484 L56.8096475,9.12801484 C57.2890538,9.12801484 57.6549165,9.34248609 57.9072356,9.77142857 L68.7317254,26.5758813 L68.7317254,10.0742115 C68.7317254,9.79666048 68.8137291,9.56957328 68.9777365,9.39294991 C69.141744,9.21632653 69.3625232,9.12801484 69.6400742,9.12801484 L72.8949907,9.12801484 C73.1725417,9.12801484 73.3996289,9.21632653 73.5762523,9.39294991 C73.7528757,9.56957328 73.8411874,9.79666048 73.8411874,10.0742115 L73.8411874,34.6753247 C73.8411874,34.9528757 73.7528757,35.1799629 73.5762523,35.3565863 C73.3996289,35.5332096 73.1851577,35.6215213 72.9328386,35.6215213 L69.9428571,35.6215213 C69.4382189,35.6215213 69.0597403,35.4070501 68.8074212,34.9781076 L58.0207792,18.5521336 L58.0207792,34.7131725 C58.0207792,34.9654917 57.9387755,35.1799629 57.7747681,35.3565863 C57.6107607,35.5332096 57.3899814,35.6215213 57.1124304,35.6215213 L53.8575139,35.6215213 Z" id="Path" fill="#323030" fill-rule="nonzero"></path>
            <g id="Group-3" transform="translate(119.8442, 8.7495)" fill="#323030" fill-rule="nonzero">
                <path d="M0.908348794,26.8719852 C0.656029685,26.8719852 0.441558442,26.7836735 0.264935065,26.6070501 C0.0883116883,26.4304267 -1.46168791e-14,26.2159555 -1.46168791e-14,25.9636364 L-1.46168791e-14,1.32467532 C-1.46168791e-14,1.0471243 0.0820037106,0.820037106 0.246011132,0.643413729 C0.410018553,0.466790353 0.630797774,0.378478664 0.908348794,0.378478664 L17.3721707,0.378478664 C17.6497217,0.378478664 17.8768089,0.466790353 18.0534323,0.643413729 C18.2300557,0.820037106 18.3183673,1.0471243 18.3183673,1.32467532 L18.3183673,4.04972171 C18.3183673,4.30204082 18.2300557,4.51651206 18.0534323,4.69313544 C17.8768089,4.86975881 17.6497217,4.9580705 17.3721707,4.9580705 L5.26085343,4.9580705 L5.26085343,12.0734694 L16.6152134,12.0734694 C16.8927644,12.0734694 17.1198516,12.1617811 17.296475,12.3384045 C17.4730983,12.5150278 17.56141,12.7294991 17.56141,12.9818182 L17.56141,15.7068646 C17.56141,15.9591837 17.4730983,16.1736549 17.296475,16.3502783 C17.1198516,16.5269017 16.8927644,16.6152134 16.6152134,16.6152134 L5.26085343,16.6152134 L5.26085343,25.9636364 C5.26085343,26.2159555 5.17254174,26.4304267 4.99591837,26.6070501 C4.81929499,26.7836735 4.59220779,26.8719852 4.31465677,26.8719852 L0.908348794,26.8719852 Z" id="Path"></path>
                <path d="M23.6927644,26.8719852 C23.4404453,26.8719852 23.225974,26.7836735 23.0493506,26.6070501 C22.8727273,26.4304267 22.7844156,26.2159555 22.7844156,25.9636364 L22.7844156,1.32467532 C22.7844156,1.0471243 22.8664193,0.820037106 23.0304267,0.643413729 C23.1944341,0.466790353 23.4152134,0.378478664 23.6927644,0.378478664 L40.3836735,0.378478664 C40.6612245,0.378478664 40.8883117,0.466790353 41.0649351,0.643413729 C41.2415584,0.820037106 41.3298701,1.0471243 41.3298701,1.32467532 L41.3298701,3.86048237 C41.3298701,4.1380334 41.2415584,4.35881262 41.0649351,4.52282004 C40.8883117,4.68682746 40.6612245,4.76883117 40.3836735,4.76883117 L27.9695733,4.76883117 L27.9695733,11.3922078 L39.5510204,11.3922078 C39.8285714,11.3922078 40.0556586,11.4805195 40.232282,11.6571429 C40.4089054,11.8337662 40.4972171,12.0608534 40.4972171,12.3384045 L40.4972171,14.72282 C40.4972171,15.0003711 40.4089054,15.2211503 40.232282,15.3851577 C40.0556586,15.5491651 39.8285714,15.6311688 39.5510204,15.6311688 L27.9695733,15.6311688 L27.9695733,22.4816327 L40.6864564,22.4816327 C40.9640074,22.4816327 41.1910946,22.5636364 41.367718,22.7276438 C41.5443414,22.8916512 41.6326531,23.1124304 41.6326531,23.3899814 L41.6326531,25.9636364 C41.6326531,26.2411874 41.5443414,26.4619666 41.367718,26.625974 C41.1910946,26.7899814 40.9640074,26.8719852 40.6864564,26.8719852 L23.6927644,26.8719852 Z" id="Path"></path>
                <path d="M55.5985158,27.2504638 C53.3276438,27.2504638 51.3847866,26.909833 49.7699443,26.2285714 C48.155102,25.5473098 46.9313544,24.651577 46.0987013,23.5413729 C45.2660482,22.4311688 44.8244898,21.2200371 44.774026,19.9079777 C44.774026,19.7061224 44.8497217,19.5231911 45.0011132,19.3591837 C45.1525046,19.1951763 45.341744,19.1131725 45.5688312,19.1131725 L49.012987,19.1131725 C49.290538,19.1131725 49.5176252,19.1762523 49.6942486,19.3024119 C49.870872,19.4285714 50.0348794,19.6051948 50.1862709,19.832282 C50.43859,20.690167 51.012616,21.4092764 51.9083488,21.9896104 C52.8040816,22.5699443 54.0341373,22.8601113 55.5985158,22.8601113 C57.3647495,22.8601113 58.6957328,22.5636364 59.5914657,21.9706865 C60.4871985,21.3777365 60.9350649,20.5640074 60.9350649,19.5294991 C60.9350649,18.8482375 60.7079777,18.2805195 60.2538033,17.8263451 C59.7996289,17.3721707 59.1120594,16.9747681 58.1910946,16.6341373 C57.2701299,16.2935065 55.9012987,15.8834879 54.0846011,15.4040816 C51.1072356,14.6975881 48.9246753,13.7640074 47.5369202,12.6033395 C46.1491651,11.4426716 45.4552876,9.77736549 45.4552876,7.60742115 C45.4552876,6.14397032 45.8589981,4.83821892 46.6664193,3.69016698 C47.4738404,2.54211503 48.6282004,1.64007421 50.1294991,0.984044527 C51.6307978,0.328014842 53.3781076,0 55.3714286,0 C57.4656772,0 59.2760668,0.365862709 60.8025974,1.09758813 C62.329128,1.82931354 63.4897959,2.74397032 64.2846011,3.84155844 C65.0794063,4.93914657 65.5020408,6.03042672 65.5525046,7.11539889 C65.5525046,7.31725417 65.4768089,7.50018553 65.3254174,7.66419295 C65.174026,7.82820037 64.9847866,7.91020408 64.7576994,7.91020408 L61.1621521,7.91020408 C60.6070501,7.91020408 60.2285714,7.68311688 60.0267161,7.22894249 C59.9005566,6.42152134 59.4085343,5.74656772 58.5506494,5.20408163 C57.6927644,4.66159555 56.6330241,4.3903525 55.3714286,4.3903525 C53.9836735,4.3903525 52.8923933,4.65528757 52.0975881,5.1851577 C51.3027829,5.71502783 50.9053803,6.48460111 50.9053803,7.49387755 C50.9053803,8.17513915 51.1072356,8.74285714 51.5109462,9.19703154 C51.9146568,9.65120594 52.5454545,10.0486085 53.4033395,10.3892393 C54.2612245,10.7298701 55.5102041,11.1146568 57.1502783,11.5435993 C59.3959184,12.0482375 61.1810761,12.6159555 62.5057514,13.2467532 C63.8304267,13.877551 64.8081633,14.6723562 65.438961,15.6311688 C66.0697588,16.5899814 66.3851577,17.8137291 66.3851577,19.3024119 C66.3851577,20.9424861 65.9372913,22.3617811 65.0415584,23.5602968 C64.1458256,24.7588126 62.8842301,25.6734694 61.2567718,26.3042672 C59.6293135,26.9350649 57.7432282,27.2504638 55.5985158,27.2504638 Z" id="Path"></path>
                <path d="M77.4367347,26.8719852 C77.1844156,26.8719852 76.9699443,26.7836735 76.793321,26.6070501 C76.6166976,26.4304267 76.5283859,26.2159555 76.5283859,25.9636364 L76.5283859,5.10946197 L69.5265306,5.10946197 C69.2742115,5.10946197 69.0597403,5.02115028 68.8831169,4.8445269 C68.7064935,4.66790353 68.6181818,4.44081633 68.6181818,4.16326531 L68.6181818,1.32467532 C68.6181818,1.0471243 68.7001855,0.820037106 68.8641929,0.643413729 C69.0282004,0.466790353 69.2489796,0.378478664 69.5265306,0.378478664 L88.8667904,0.378478664 C89.1443414,0.378478664 89.3714286,0.466790353 89.5480519,0.643413729 C89.7246753,0.820037106 89.812987,1.0471243 89.812987,1.32467532 L89.812987,4.16326531 C89.812987,4.44081633 89.7246753,4.66790353 89.5480519,4.8445269 C89.3714286,5.02115028 89.1443414,5.10946197 88.8667904,5.10946197 L81.9027829,5.10946197 L81.9027829,25.9636364 C81.9027829,26.2159555 81.8207792,26.4304267 81.6567718,26.6070501 C81.4927644,26.7836735 81.2719852,26.8719852 80.9944341,26.8719852 L77.4367347,26.8719852 Z" id="Path"></path>
                <path d="M94.5439703,26.8719852 C94.2916512,26.8719852 94.07718,26.7836735 93.9005566,26.6070501 C93.7239332,26.4304267 93.6356215,26.2159555 93.6356215,25.9636364 L93.6356215,1.28682746 C93.6356215,1.00927644 93.7239332,0.788497217 93.9005566,0.624489796 C94.07718,0.460482375 94.2916512,0.378478664 94.5439703,0.378478664 L98.1773655,0.378478664 C98.4549165,0.378478664 98.6756957,0.460482375 98.8397032,0.624489796 C99.0037106,0.788497217 99.0857143,1.00927644 99.0857143,1.28682746 L99.0857143,25.9636364 C99.0857143,26.2159555 99.0037106,26.4304267 98.8397032,26.6070501 C98.6756957,26.7836735 98.4549165,26.8719852 98.1773655,26.8719852 L94.5439703,26.8719852 Z" id="Path"></path>
                <path d="M112.710946,26.8719852 C111.953989,26.8719852 111.461967,26.5187384 111.234879,25.8122449 L103.135436,1.51391466 C103.110204,1.43821892 103.097588,1.32467532 103.097588,1.17328386 C103.097588,0.94619666 103.173284,0.756957328 103.324675,0.605565863 C103.476067,0.454174397 103.665306,0.378478664 103.892393,0.378478664 L107.260853,0.378478664 C107.588868,0.378478664 107.853803,0.466790353 108.055659,0.643413729 C108.257514,0.820037106 108.396289,1.00927644 108.471985,1.21113173 L114.792579,20.5892393 L121.15102,1.21113173 C121.201484,1.00927644 121.327644,0.820037106 121.529499,0.643413729 C121.731354,0.466790353 121.996289,0.378478664 122.324304,0.378478664 L125.730612,0.378478664 C125.932468,0.378478664 126.115399,0.454174397 126.279406,0.605565863 C126.443414,0.756957328 126.525417,0.94619666 126.525417,1.17328386 L126.449722,1.51391466 L118.388126,25.8122449 C118.135807,26.5187384 117.643785,26.8719852 116.912059,26.8719852 L112.710946,26.8719852 Z" id="Path"></path>
                <path d="M128.909833,26.8719852 C128.682746,26.8719852 128.493506,26.7962894 128.342115,26.644898 C128.190724,26.4935065 128.115028,26.3042672 128.115028,26.07718 L128.190724,25.7365492 L137.274212,1.32467532 C137.526531,0.693877551 137.980705,0.378478664 138.636735,0.378478664 L142.8,0.378478664 C143.45603,0.378478664 143.910204,0.693877551 144.162523,1.32467532 L153.246011,25.7365492 L153.321707,26.07718 C153.321707,26.3042672 153.239703,26.4935065 153.075696,26.644898 C152.911688,26.7962894 152.728757,26.8719852 152.526902,26.8719852 L149.158442,26.8719852 C148.628571,26.8719852 148.262709,26.632282 148.060853,26.1528757 L146.319852,21.5732839 L135.116883,21.5732839 L133.375881,26.1528757 C133.174026,26.632282 132.808163,26.8719852 132.278293,26.8719852 L128.909833,26.8719852 Z M136.441558,17.1829314 L144.995176,17.1829314 L140.718367,5.5257885 L136.441558,17.1829314 Z" id="Shape"></path>
                <path d="M157.712059,26.8719852 C157.45974,26.8719852 157.245269,26.7836735 157.068646,26.6070501 C156.892022,26.4304267 156.803711,26.2159555 156.803711,25.9636364 L156.803711,1.28682746 C156.803711,1.00927644 156.892022,0.788497217 157.068646,0.624489796 C157.245269,0.460482375 157.45974,0.378478664 157.712059,0.378478664 L161.269759,0.378478664 C161.54731,0.378478664 161.768089,0.460482375 161.932096,0.624489796 C162.096104,0.788497217 162.178108,1.00927644 162.178108,1.28682746 L162.178108,22.3302412 L174.175881,22.3302412 C174.453432,22.3302412 174.680519,22.4185529 174.857143,22.5951763 C175.033766,22.7717996 175.122078,22.9862709 175.122078,23.23859 L175.122078,25.9636364 C175.122078,26.2159555 175.033766,26.4304267 174.857143,26.6070501 C174.680519,26.7836735 174.453432,26.8719852 174.175881,26.8719852 L157.712059,26.8719852 Z" id="Path"></path>
            </g>
            <circle id="Oval" stroke="#323030" stroke-width="3" cx="96.2938776" cy="12.8014842" r="11.3014842"></circle>
        </g>
    </g>
</svg>