<?xml version="1.0" encoding="UTF-8"?>
<svg width="269px" height="33px" viewBox="0 0 269 33" version="1.1" xmlns="http://www.w3.org/2000/svg" xmlns:xlink="http://www.w3.org/1999/xlink">
    <title>Group 4</title>
    <g id="Page-1" stroke="none" stroke-width="1" fill="none" fill-rule="evenodd">
        <g id="Group-4" transform="translate(0.224, 0)">
            <path d="M9.724,32.34 C7.684,32.34 5.93866667,32.034 4.488,31.422 C3.03733333,30.81 1.938,30.0053333 1.19,29.008 C0.442,28.0106667 0.0453333333,26.9226667 1.0658141e-14,25.744 C1.0658141e-14,25.5626667 0.068,25.3983333 0.204,25.251 C0.34,25.1036667 0.51,25.03 0.714,25.03 L3.808,25.03 C4.05733333,25.03 4.26133333,25.0866667 4.42,25.2 C4.57866667,25.3133333 4.726,25.472 4.862,25.676 C5.08866667,26.4466667 5.60433333,27.0926667 6.409,27.614 C7.21366667,28.1353333 8.31866667,28.396 9.724,28.396 C11.3106667,28.396 12.5063333,28.1296667 13.311,27.597 C14.1156667,27.0643333 14.518,26.3333333 14.518,25.404 C14.518,24.792 14.314,24.282 13.906,23.874 C13.498,23.466 12.8803333,23.109 12.053,22.803 C11.2256667,22.497 9.996,22.1286667 8.364,21.698 C5.68933333,21.0633333 3.72866667,20.2246667 2.482,19.182 C1.23533333,18.1393333 0.612,16.6433333 0.612,14.694 C0.612,13.3793333 0.974666667,12.2063333 1.7,11.175 C2.42533333,10.1436667 3.46233333,9.33333333 4.811,8.744 C6.15966667,8.15466667 7.72933333,7.86 9.52,7.86 C11.4013333,7.86 13.0276667,8.18866667 14.399,8.846 C15.7703333,9.50333333 16.813,10.325 17.527,11.311 C18.241,12.297 18.6206667,13.2773333 18.666,14.252 C18.666,14.4333333 18.598,14.5976667 18.462,14.745 C18.326,14.8923333 18.156,14.966 17.952,14.966 L14.722,14.966 C14.2233333,14.966 13.8833333,14.762 13.702,14.354 C13.5886667,13.6286667 13.1466667,13.0223333 12.376,12.535 C11.6053333,12.0476667 10.6533333,11.804 9.52,11.804 C8.27333333,11.804 7.293,12.042 6.579,12.518 C5.865,12.994 5.508,13.6853333 5.508,14.592 C5.508,15.204 5.68933333,15.714 6.052,16.122 C6.41466667,16.53 6.98133333,16.887 7.752,17.193 C8.52266667,17.499 9.64466667,17.8446667 11.118,18.23 C13.1353333,18.6833333 14.739,19.1933333 15.929,19.76 C17.119,20.3266667 17.9973333,21.0406667 18.564,21.902 C19.1306667,22.7633333 19.414,23.8626667 19.414,25.2 C19.414,26.6733333 19.0116667,27.9483333 18.207,29.025 C17.4023333,30.1016667 16.269,30.9233333 14.807,31.49 C13.345,32.0566667 11.6506667,32.34 9.724,32.34 Z" id="Path" fill="#323030" fill-rule="nonzero"></path>
            <path d="M32.81,32.34 C29.7273333,32.34 27.336,31.558 25.636,29.994 C23.936,28.43 23.086,26.0613333 23.086,22.888 L23.086,9.05 C23.086,8.80066667 23.1596667,8.59666667 23.307,8.438 C23.4543333,8.27933333 23.6526667,8.2 23.902,8.2 L27.03,8.2 C27.2793333,8.2 27.4833333,8.27933333 27.642,8.438 C27.8006667,8.59666667 27.88,8.80066667 27.88,9.05 L27.88,22.888 C27.88,24.6786667 28.305,26.0273333 29.155,26.934 C30.005,27.8406667 31.212,28.294 32.776,28.294 C34.34,28.294 35.547,27.8406667 36.397,26.934 C37.247,26.0273333 37.672,24.6786667 37.672,22.888 L37.672,9.05 C37.672,8.80066667 37.7513333,8.59666667 37.91,8.438 C38.0686667,8.27933333 38.2726667,8.2 38.522,8.2 L41.65,8.2 C41.8993333,8.2 42.0976667,8.27933333 42.245,8.438 C42.3923333,8.59666667 42.466,8.80066667 42.466,9.05 L42.466,22.888 C42.466,26.0613333 41.6216667,28.43 39.933,29.994 C38.2443333,31.558 35.87,32.34 32.81,32.34 Z" id="Path" fill="#323030" fill-rule="nonzero"></path>
            <path d="M48.382,32 C48.1553333,32 47.9626667,31.9206667 47.804,31.762 C47.6453333,31.6033333 47.566,31.4106667 47.566,31.184 L47.566,9.05 C47.566,8.80066667 47.6396667,8.59666667 47.787,8.438 C47.9343333,8.27933333 48.1326667,8.2 48.382,8.2 L51.034,8.2 C51.4646667,8.2 51.7933333,8.39266667 52.02,8.778 L61.744,23.874 L61.744,9.05 C61.744,8.80066667 61.8176667,8.59666667 61.965,8.438 C62.1123333,8.27933333 62.3106667,8.2 62.56,8.2 L65.484,8.2 C65.7333333,8.2 65.9373333,8.27933333 66.096,8.438 C66.2546667,8.59666667 66.334,8.80066667 66.334,9.05 L66.334,31.15 C66.334,31.3993333 66.2546667,31.6033333 66.096,31.762 C65.9373333,31.9206667 65.7446667,32 65.518,32 L62.832,32 C62.3786667,32 62.0386667,31.8073333 61.812,31.422 L52.122,16.666 L52.122,31.184 C52.122,31.4106667 52.0483333,31.6033333 51.901,31.762 C51.7536667,31.9206667 51.5553333,32 51.306,32 L48.382,32 Z" id="Path" fill="#323030" fill-rule="nonzero"></path>
            <g id="Group-3" transform="translate(111.356, 7.86)" fill="#323030" fill-rule="nonzero">
                <path d="M0.816,24.14 C0.589333333,24.14 0.396666667,24.0606667 0.238,23.902 C0.0793333333,23.7433333 -1.42108547e-14,23.5506667 -1.42108547e-14,23.324 L-1.42108547e-14,1.19 C-1.42108547e-14,0.940666667 0.0736666667,0.736666667 0.221,0.578 C0.368333333,0.419333333 0.566666667,0.34 0.816,0.34 L15.606,0.34 C15.8553333,0.34 16.0593333,0.419333333 16.218,0.578 C16.3766667,0.736666667 16.456,0.940666667 16.456,1.19 L16.456,3.638 C16.456,3.86466667 16.3766667,4.05733333 16.218,4.216 C16.0593333,4.37466667 15.8553333,4.454 15.606,4.454 L4.726,4.454 L4.726,10.846 L14.926,10.846 C15.1753333,10.846 15.3793333,10.9253333 15.538,11.084 C15.6966667,11.2426667 15.776,11.4353333 15.776,11.662 L15.776,14.11 C15.776,14.3366667 15.6966667,14.5293333 15.538,14.688 C15.3793333,14.8466667 15.1753333,14.926 14.926,14.926 L4.726,14.926 L4.726,23.324 C4.726,23.5506667 4.64666667,23.7433333 4.488,23.902 C4.32933333,24.0606667 4.12533333,24.14 3.876,24.14 L0.816,24.14 Z" id="Path"></path>
                <path d="M21.284,24.14 C21.0573333,24.14 20.8646667,24.0606667 20.706,23.902 C20.5473333,23.7433333 20.468,23.5506667 20.468,23.324 L20.468,1.19 C20.468,0.940666667 20.5416667,0.736666667 20.689,0.578 C20.8363333,0.419333333 21.0346667,0.34 21.284,0.34 L36.278,0.34 C36.5273333,0.34 36.7313333,0.419333333 36.89,0.578 C37.0486667,0.736666667 37.128,0.940666667 37.128,1.19 L37.128,3.468 C37.128,3.71733333 37.0486667,3.91566667 36.89,4.063 C36.7313333,4.21033333 36.5273333,4.284 36.278,4.284 L25.126,4.284 L25.126,10.234 L35.53,10.234 C35.7793333,10.234 35.9833333,10.3133333 36.142,10.472 C36.3006667,10.6306667 36.38,10.8346667 36.38,11.084 L36.38,13.226 C36.38,13.4753333 36.3006667,13.6736667 36.142,13.821 C35.9833333,13.9683333 35.7793333,14.042 35.53,14.042 L25.126,14.042 L25.126,20.196 L36.55,20.196 C36.7993333,20.196 37.0033333,20.2696667 37.162,20.417 C37.3206667,20.5643333 37.4,20.7626667 37.4,21.012 L37.4,23.324 C37.4,23.5733333 37.3206667,23.7716667 37.162,23.919 C37.0033333,24.0663333 36.7993333,24.14 36.55,24.14 L21.284,24.14 Z" id="Path"></path>
                <path d="M49.946,24.48 C47.906,24.48 46.1606667,24.174 44.71,23.562 C43.2593333,22.95 42.16,22.1453333 41.412,21.148 C40.664,20.1506667 40.2673333,19.0626667 40.222,17.884 C40.222,17.7026667 40.29,17.5383333 40.426,17.391 C40.562,17.2436667 40.732,17.17 40.936,17.17 L44.03,17.17 C44.2793333,17.17 44.4833333,17.2266667 44.642,17.34 C44.8006667,17.4533333 44.948,17.612 45.084,17.816 C45.3106667,18.5866667 45.8263333,19.2326667 46.631,19.754 C47.4356667,20.2753333 48.5406667,20.536 49.946,20.536 C51.5326667,20.536 52.7283333,20.2696667 53.533,19.737 C54.3376667,19.2043333 54.74,18.4733333 54.74,17.544 C54.74,16.932 54.536,16.422 54.128,16.014 C53.72,15.606 53.1023333,15.249 52.275,14.943 C51.4476667,14.637 50.218,14.2686667 48.586,13.838 C45.9113333,13.2033333 43.9506667,12.3646667 42.704,11.322 C41.4573333,10.2793333 40.834,8.78333333 40.834,6.834 C40.834,5.51933333 41.1966667,4.34633333 41.922,3.315 C42.6473333,2.28366667 43.6843333,1.47333333 45.033,0.884 C46.3816667,0.294666667 47.9513333,0 49.742,0 C51.6233333,0 53.2496667,0.328666667 54.621,0.986 C55.9923333,1.64333333 57.035,2.465 57.749,3.451 C58.463,4.437 58.8426667,5.41733333 58.888,6.392 C58.888,6.57333333 58.82,6.73766667 58.684,6.885 C58.548,7.03233333 58.378,7.106 58.174,7.106 L54.944,7.106 C54.4453333,7.106 54.1053333,6.902 53.924,6.494 C53.8106667,5.76866667 53.3686667,5.16233333 52.598,4.675 C51.8273333,4.18766667 50.8753333,3.944 49.742,3.944 C48.4953333,3.944 47.515,4.182 46.801,4.658 C46.087,5.134 45.73,5.82533333 45.73,6.732 C45.73,7.344 45.9113333,7.854 46.274,8.262 C46.6366667,8.67 47.2033333,9.027 47.974,9.333 C48.7446667,9.639 49.8666667,9.98466667 51.34,10.37 C53.3573333,10.8233333 54.961,11.3333333 56.151,11.9 C57.341,12.4666667 58.2193333,13.1806667 58.786,14.042 C59.3526667,14.9033333 59.636,16.0026667 59.636,17.34 C59.636,18.8133333 59.2336667,20.0883333 58.429,21.165 C57.6243333,22.2416667 56.491,23.0633333 55.029,23.63 C53.567,24.1966667 51.8726667,24.48 49.946,24.48 Z" id="Path"></path>
                <path d="M69.564,24.14 C69.3373333,24.14 69.1446667,24.0606667 68.986,23.902 C68.8273333,23.7433333 68.748,23.5506667 68.748,23.324 L68.748,4.59 L62.458,4.59 C62.2313333,4.59 62.0386667,4.51066667 61.88,4.352 C61.7213333,4.19333333 61.642,3.98933333 61.642,3.74 L61.642,1.19 C61.642,0.940666667 61.7156667,0.736666667 61.863,0.578 C62.0103333,0.419333333 62.2086667,0.34 62.458,0.34 L79.832,0.34 C80.0813333,0.34 80.2853333,0.419333333 80.444,0.578 C80.6026667,0.736666667 80.682,0.940666667 80.682,1.19 L80.682,3.74 C80.682,3.98933333 80.6026667,4.19333333 80.444,4.352 C80.2853333,4.51066667 80.0813333,4.59 79.832,4.59 L73.576,4.59 L73.576,23.324 C73.576,23.5506667 73.5023333,23.7433333 73.355,23.902 C73.2076667,24.0606667 73.0093333,24.14 72.76,24.14 L69.564,24.14 Z" id="Path"></path>
                <path d="M84.932,24.14 C84.7053333,24.14 84.5126667,24.0606667 84.354,23.902 C84.1953333,23.7433333 84.116,23.5506667 84.116,23.324 L84.116,1.156 C84.116,0.906666667 84.1953333,0.708333333 84.354,0.561 C84.5126667,0.413666667 84.7053333,0.34 84.932,0.34 L88.196,0.34 C88.4453333,0.34 88.6436667,0.413666667 88.791,0.561 C88.9383333,0.708333333 89.012,0.906666667 89.012,1.156 L89.012,23.324 C89.012,23.5506667 88.9383333,23.7433333 88.791,23.902 C88.6436667,24.0606667 88.4453333,24.14 88.196,24.14 L84.932,24.14 Z" id="Path"></path>
                <path d="M101.252,24.14 C100.572,24.14 100.13,23.8226667 99.926,23.188 L92.65,1.36 C92.6273333,1.292 92.616,1.19 92.616,1.054 C92.616,0.85 92.684,0.68 92.82,0.544 C92.956,0.408 93.126,0.34 93.33,0.34 L96.356,0.34 C96.6506667,0.34 96.8886667,0.419333333 97.07,0.578 C97.2513333,0.736666667 97.376,0.906666667 97.444,1.088 L103.122,18.496 L108.834,1.088 C108.879333,0.906666667 108.992667,0.736666667 109.174,0.578 C109.355333,0.419333333 109.593333,0.34 109.888,0.34 L112.948,0.34 C113.129333,0.34 113.293667,0.408 113.441,0.544 C113.588333,0.68 113.662,0.85 113.662,1.054 L113.594,1.36 L106.352,23.188 C106.125333,23.8226667 105.683333,24.14 105.026,24.14 L101.252,24.14 Z" id="Path"></path>
                <path d="M115.804,24.14 C115.6,24.14 115.43,24.072 115.294,23.936 C115.158,23.8 115.09,23.63 115.09,23.426 L115.158,23.12 L123.318,1.19 C123.544667,0.623333333 123.952667,0.34 124.542,0.34 L128.282,0.34 C128.871333,0.34 129.279333,0.623333333 129.506,1.19 L137.666,23.12 L137.734,23.426 C137.734,23.63 137.660333,23.8 137.513,23.936 C137.365667,24.072 137.201333,24.14 137.02,24.14 L133.994,24.14 C133.518,24.14 133.189333,23.9246667 133.008,23.494 L131.444,19.38 L121.38,19.38 L119.816,23.494 C119.634667,23.9246667 119.306,24.14 118.83,24.14 L115.804,24.14 Z M122.57,15.436 L130.254,15.436 L126.412,4.964 L122.57,15.436 Z" id="Shape"></path>
                <path d="M141.678,24.14 C141.451333,24.14 141.258667,24.0606667 141.1,23.902 C140.941333,23.7433333 140.862,23.5506667 140.862,23.324 L140.862,1.156 C140.862,0.906666667 140.941333,0.708333333 141.1,0.561 C141.258667,0.413666667 141.451333,0.34 141.678,0.34 L144.874,0.34 C145.123333,0.34 145.321667,0.413666667 145.469,0.561 C145.616333,0.708333333 145.69,0.906666667 145.69,1.156 L145.69,20.06 L156.468,20.06 C156.717333,20.06 156.921333,20.1393333 157.08,20.298 C157.238667,20.4566667 157.318,20.6493333 157.318,20.876 L157.318,23.324 C157.318,23.5506667 157.238667,23.7433333 157.08,23.902 C156.921333,24.0606667 156.717333,24.14 156.468,24.14 L141.678,24.14 Z" id="Path"></path>
            </g>
            <circle id="Oval" stroke="#323030" stroke-width="3" cx="89.276" cy="11.5" r="10"></circle>
        </g>
    </g>
</svg>