<svg id="Layer_1" data-name="Layer 1" xmlns="http://www.w3.org/2000/svg" xmlns:xlink="http://www.w3.org/1999/xlink" viewBox="0 0 598 598">
    <defs>
        <style>.cls-1{fill:none;}.cls-2{clip-path:url(#clip-path);}.cls-3{fill:#fff;}.cls-4{fill:#cd181e;}</style>
        <clipPath id="clip-path" transform="translate(-94.24 -382.81)">
            <rect class="cls-1" x="94.24" y="367" width="597.38" height="627.36"/>
        </clipPath>
    </defs>
    <title>DBU_emblem_top</title>
    <g class="cls-2">
        <path class="cls-3" d="M392.93,385.25c-163.61,0-296.24,132.63-296.24,296.25S229.32,977.74,392.93,977.74,689.17,845.11,689.17,681.5,556.54,385.25,392.93,385.25" transform="translate(-94.24 -382.81)"/>
        <path class="cls-4" d="M392.93,382.81a298.69,298.69,0,1,0,211.21,87.48,296.73,296.73,0,0,0-211.21-87.48M687.4,681.5a294.48,294.48,0,1,1-86.25-208.22A292.54,292.54,0,0,1,687.4,681.5" transform="translate(-94.24 -382.81)"/>
        <path class="cls-4" d="M392.93,967.51c158,0,286-128.06,286-286s-128.06-286-286-286-286,128.05-286,286,128.05,286,286,286" transform="translate(-94.24 -382.81)"/>
        <path class="cls-3" d="M262.83,895.52a5,5,0,1,0-5-5,5,5,0,0,0,5,5" transform="translate(-94.24 -382.81)"/>
        <path class="cls-3" d="M530.53,890.82a5,5,0,1,0-5-5,5,5,0,0,0,5,5" transform="translate(-94.24 -382.81)"/>
        <path class="cls-3" d="M188.95,548a5,5,0,1,0-5-5,5,5,0,0,0,5,5" transform="translate(-94.24 -382.81)"/>
        <path class="cls-3" d="M392.93,885.45c112.46,0,204-91.49,204-204s-91.49-204-204-204S189,569,189,681.5s91.49,204,204,204M194.4,681.5C194.4,572,283.46,483,392.93,483S591.46,572,591.46,681.5,502.4,880,392.93,880,194.4,791,194.4,681.5" transform="translate(-94.24 -382.81)"/>
        <path class="cls-3" d="M310.93,634.65c-11.43-15.95-14.06-36.11-14.06-36.11H231.19l-4.81,12.64c3.91.5,15.95,10,15.95,20.43v80.07c0,4.48-5.94,13.46-19.56,19.25l5.42,13.64h65.89c4.81,0,44.26-4.18,43.33-53.05-.35-18.32-13.76-39.13-26.48-56.87m-2.1,53.26c-3.56,27.38-24.67,25.27-24.67,25.27H269.2V628.54c0,2.8,43.53,29.27,39.62,59.36" transform="translate(-94.24 -382.81)"/>
        <path class="cls-3" d="M438.8,684c-3-5.72-17.24-21.74-17.24-21.74,7.25-9.78,15.6-21.15,12.55-40-2-12.63-10.35-25.24-27.8-32.46-27.5-11.38-57.77-4.21-74.92,12.94,0,0,13.54,9.93,13.54,26.78v75.25c0,9.51-8.39,32.27-24.07,39.79H361s-10.35-9.81-8.07-23.27c2.16-12.74,11.32-22.87,20.84-23.18V658.41l32.5,34.3s8.12,9.13,4,20.76c-3.15,8.81-11.08,11.83-16.6,10.83-7-1.27-12.18-4.85-12.48-11.17s-3.68-7.13-5.79-7.73-6.51.85-8.82,3c-3,2.76-8.42,10.23-6.92,19.25S369.9,753.8,394,753.8c18.35,0,35.5-6,45.73-23.77,12.06-20.93,2.11-40.32-.9-46m-28.72-54.93c-.6,13.84-9.19,19.73-9.19,19.73s-21.1-20-23.17-22-8.26-10-.3-17.75c7.76-7.59,16.74-2.3,20.95.11,2.26,1.29,12.11,10.74,11.71,19.88" transform="translate(-94.24 -382.81)"/>
        <path class="cls-3" d="M496,598.54H466.47l-6.32,12.34A17.34,17.34,0,0,1,468,625c.3,20.76-17.45,49.35-22.57,56.27,0,0,16.25,27,.9,49.35a32.8,32.8,0,0,0,26.78,13.94h84l5.42-13.69c-8-3.08-19.57-12.38-19.57-19.44V633c0-8.11,7-18.76,16-21.88L554,598.48l-39.43.06V713.48s-33.71,7.9-39-22.26c-1.81-10.23.09-24,11.05-48.74C497,619.09,496,616.63,496,611.68Z" transform="translate(-94.24 -382.81)"/>
        <path class="cls-3" d="M215.94,877.69l-2.27-2.27c-10.43-10.45-12.73-24.85-3.51-34s19.93-5,29.93,5L243.7,850ZM259.46,857l-17.37-17.4C223,820.44,208,825.87,201,832.82c-9.43,9.41-10.28,28.43,7,45.76l14.85,14.88,1.9-1.89c-2.6-3.42-1.06-5,1.14-7.16L250.41,860c2.2-2.2,3.74-3.74,7.16-1.13Z" transform="translate(-94.24 -382.81)"/>
        <path class="cls-3" d="M182,803.69l-18.82,1,11.4-15.2Zm-31.13-2,5.85,11.15,48-2.52c2.24-.09,5.52-.54,7.14,2.24l2.37-1.24-7.9-15.08L204,797.46c1.08,3.94-.22,4.72-3.49,4.87l-11.81.7-9.88-18.85,7.09-9.7c1.94-2.69,3.34-3.91,5.91-.26l2.37-1.24-9.44-18-2.37,1.24c1,2.52-.09,3.87-1.36,5.52Z" transform="translate(-94.24 -382.81)"/>
        <path class="cls-3" d="M139.91,743.88,172.46,738c3.06-.55,5.2-.94,5.09-4.8l2.64-.48,2.9,16.07-2.63.48c-1.25-3.66-3.39-3.27-6.45-2.72l-34,6.14c-3.06.55-5.2.93-5.09,4.8l-2.64.48-3.15-17.44,17.83-30.84-14.25,2.57c-3.06.55-5.2.94-5.09,4.8l-2.64.48L122,701.47l2.64-.47c1.25,3.66,3.39,3.27,6.45,2.72l34-6.14c3.06-.55,5.2-.94,5.09-4.8l2.64-.48,2.9,16.07-2.63.48c-1.25-3.66-3.39-3.27-6.45-2.72l-6.7,1.21Z" transform="translate(-94.24 -382.81)"/>
        <path class="cls-3" d="M155,668.77l2.46-2.43a5.27,5.27,0,0,0,3.51,2.41c5.61.64,8.82-7.73,9.44-13.08.7-6.13-.84-15-6.95-15.66-13.59-1.55-8.47,38.37-27.89,36.15-11-1.26-13.31-14.81-12-25.94,1.15-10,5.15-18.91,12.62-24.34l6.06,10.66-2,2.74a3.39,3.39,0,0,0-2.07-1c-5.11-.59-7.47,8-8,12.72-.56,4.92-.57,12.61,4.68,13.21,10.93,1.25,7.69-39.16,28.47-36.78,11.94,1.37,15.2,16.16,13.78,28.59-1.57,13.72-6.47,20.24-16.41,26.27Z" transform="translate(-94.24 -382.81)"/>
        <path class="cls-3" d="M197.12,569.17a7.37,7.37,0,0,0,4.75-3.16l2.46,1.06-8.2,19.07-2.46-1.06c1.38-3.94-.05-3.9-1.93-3.39l-26,7.15,3.12,10.33,10.44,4.49c2.86,1.23,4.85,2.09,6.9-1.19l2.46,1.06-7.69,17.87-2.46-1.06c1-3.74-1-4.6-3.87-5.83l-31.78-13.68c-2.86-1.23-4.86-2.09-6.9,1.19L133.47,601l7.69-17.87,2.46,1.06c-1,3.74,1,4.6,3.88,5.83l13,5.61-7.45-23.35c-1.16-3.53-2.61-2.73-4.41.18l-2.46-1.06,9-20.82,2.46,1.06c-1.62,3.94-.45,7.09.54,10.64l4.52,16.22Z" transform="translate(-94.24 -382.81)"/>
        <path class="cls-3" d="M233.85,522.48l-12.61-14,8.44-7.62c5.74-5.18,12.82-8,17.67-2.6,4.41,4.89.94,11.15-4.22,15.81Zm-7.43,15.1,24-21.66c8.12-7.33,12.9-17.6,6.16-25.06-4.95-5.48-13.29-4.87-20.16,0l-.1-.11c3.51-5.31,4.47-11.64.68-15.83-5.29-5.86-14.26-3.61-20.25,1.81l-24.95,22.53,1.8,2c3.22-2.13,4.68-.52,6.77,1.79l23.19,25.68c2.09,2.31,3.54,3.92,1.09,6.91Zm-9.36-33.68-9.51-10.53,9.09-8.21c3.93-3.55,8.8-5.41,12.25-1.6,3.83,4.24,1.13,8.64-3.32,12.65Z" transform="translate(-94.24 -382.81)"/>
        <path class="cls-3" d="M300.72,477.31c-12.67,5.72-22.48-.17-26.86-9.87-4.5-10-2.58-21.31,10.49-27.21,12.19-5.51,22.15.08,26.5,9.71,4.44,9.83,3.09,21.4-10.12,27.37m2.66,6.11c17.81-8,25.54-23.85,18.92-38.49-6.41-14.18-24.08-18.27-40.78-10.73-16.94,7.65-25.65,23.82-19.15,38.2,6.59,14.58,23.51,18.92,41,11" transform="translate(-94.24 -382.81)"/>
        <path class="cls-3" d="M340.41,465.58c3.7-1.1,3.4-3.25,3-6.34L338.57,425c-.43-3.08-.74-5.23-4.6-5.28l-.37-2.65,19.27-2.7.37,2.65c-3.7,1.11-3.4,3.26-3,6.34l5.13,36.55,16.51-2.32c4.65-.65,8.59-1.94,8.46-6.6l4.3-.6,1.61,11.47-45.5,6.39Z" transform="translate(-94.24 -382.81)"/>
        <path class="cls-3" d="M424.08,445.25l2.23,2.65a5.26,5.26,0,0,0-2.68,3.31c-1.08,5.54,7,9.4,12.31,10.43,6.06,1.18,15,.33,16.15-5.71,2.61-13.43-37.6-11.43-33.87-30.61,2.11-10.87,15.8-12.12,26.8-10,9.89,1.92,18.45,6.6,23.29,14.48L457.21,435l-2.58-2.2a3.39,3.39,0,0,0,1.18-2c1-5-7.37-8.07-12.06-9-4.86-.94-12.53-1.55-13.54,3.64-2.1,10.8,38.45,10.71,34.46,31.24-2.29,11.8-17.3,13.9-29.57,11.51-13.56-2.63-19.68-8-24.92-18.4Z" transform="translate(-94.24 -382.81)"/>
        <path class="cls-3" d="M503.47,441.68l8,4c6.21,3.12,10.41,8.88,7.55,14.57-4,8-18.14,5.15-26.73,3.67Zm-5.7,29.54c12.37,2.65,27.13,5.2,32.88-6.25,3.67-7.31.6-16.3-12.9-23.08L492.29,429.1l-1.2,2.39c3.16,2.23,2.18,4.17.78,7l-15.53,30.92c-1.4,2.78-2.37,4.72-6,3.52l-1.2,2.39L486.48,484l1.2-2.4c-3.15-2.23-2.18-4.17-.78-7l2.63-5.24Z" transform="translate(-94.24 -382.81)"/>
        <path class="cls-3" d="M536.49,505.61c-1.91,2.46-3.24,4.18-.57,7l-1.64,2.12L518.9,502.79l1.64-2.12c3.37,1.88,4.7.17,6.61-2.29L548.34,471c1.9-2.46,3.24-4.18.57-7l1.64-2.11,15.38,11.92L564.29,476c-3.37-1.88-4.7-.17-6.61,2.29Z" transform="translate(-94.24 -382.81)"/>
        <path class="cls-3" d="M543.47,518.13c3,2.47,4.6,1,6.92-1.05l25.81-23c2.32-2.07,3.94-3.52,1.83-6.75l2-1.78L593,500l-2,1.78c-3-2.46-4.6-1-6.92,1.05l-27.54,24.58,11.11,12.44c3.12,3.5,6.38,6.06,10.18,3.37l2.89,3.24-8.64,7.71-30.6-34.28Z" transform="translate(-94.24 -382.81)"/>
        <rect class="cls-3" x="597.78" y="541.15" width="7.24" height="20.24" transform="translate(-295.09 20.23) rotate(-32.04)"/>
        <path class="cls-3" d="M643.92,606.87c2.94-1,5-1.72,4.3-5.52l2.53-.87,6.35,18.39-2.53.88c-1.79-3.43-3.85-2.72-6.79-1.7l-32.7,11.28c-2.94,1-5,1.72-4.3,5.53l-2.53.87-8.89-25.78c-6.68-19.38,3.9-29.55,12.25-32.43,11.15-3.85,25.33,2.84,27.31,2.16,1.23-.42,1.06-2.48.6-3.6l2.53-.87L648.17,593l-2.53.87c-5.8-7.28-21.3-8.27-28.76-5.7-10,3.45-13.67,12.52-9.56,24.43l2.12,6.16Z" transform="translate(-94.24 -382.81)"/>
        <path class="cls-3" d="M652.2,655.7l-33.06,1.2c-3.11.11-5.28.19-5.72,4l-2.68.1-.59-16.32,2.68-.1c.72,3.8,2.89,3.72,6,3.61L653.4,647c3.11-.11,5.28-.19,5.72-4l2.68-.09.64,17.71-22,28,14.47-.52c3.11-.11,5.28-.19,5.72-4l2.68-.1.59,16.32-2.68.1c-.72-3.8-2.88-3.72-6-3.6L620.63,698c-3.11.11-5.28.19-5.72,4l-2.68.1-.59-16.32,2.68-.1c.72,3.8,2.89,3.72,6,3.61l6.8-.25Z" transform="translate(-94.24 -382.81)"/>
        <path class="cls-3" d="M615.22,727.86c-3.06-.55-5.2-.94-6.45,2.72l-2.64-.48L609.59,711l2.63.48c-.11,3.86,2,4.25,5.09,4.8l34,6.15c3.06.55,5.2.94,6.45-2.72l2.64.47L657,739.28l-2.64-.48c.11-3.86-2-4.25-5.09-4.8Z" transform="translate(-94.24 -382.81)"/>
        <path class="cls-3" d="M598.18,771.31c5.58-12.73,16.82-14.91,26.56-10.64,10,4.39,16.18,14.12,10.42,27.24-5.37,12.25-16.51,14.76-26.19,10.51-9.87-4.33-16.61-13.83-10.79-27.12m-6.06-2.75c-7.85,17.89-3,34.81,11.7,41.27,14.25,6.25,30.12-2.53,37.48-19.31,7.47-17,3.12-34.86-11.33-41.2-14.65-6.43-30.13,1.67-37.84,19.25" transform="translate(-94.24 -382.81)"/>
        <path class="cls-3" d="M597.58,842.74l-24.65-22.06c-2.32-2.08-3.94-3.52-6.92-1.06l-2-1.79,10.89-12.17,2,1.78c-2.12,3.24-.5,4.68,1.82,6.76l25.78,23.07c2.32,2.08,3.94,3.52,6.92,1.06l2,1.78-11.81,13.2-35.28,4.91,10.79,9.65C579.43,870,581,871.43,584,869l2,1.79-10.89,12.17-2-1.79c2.12-3.23.5-4.68-1.82-6.76L545.53,851.3c-2.32-2.07-3.94-3.52-6.92-1.06l-2-1.79,10.89-12.17,2,1.79c-2.12,3.23-.5,4.68,1.82,6.76l5.07,4.54Z" transform="translate(-94.24 -382.81)"/>
        <path class="cls-3" d="M320,888.79l-16.53,41.91c-1.59,4-.58,5.39,4.56,7.74l-1,2.57-25.94-10.23,1-2.57c7.62,2.68,8.75,1.28,10.58-3.38l13-33.08a40.43,40.43,0,0,1-11.55-1.5l1.53-3.89c5.83.86,11.69,1.4,16.54-.63Z" transform="translate(-94.24 -382.81)"/>
        <path class="cls-3" d="M347.52,934.77c.8-6,4.63-10.31,12.45-9.28,7.2,1,10.75,6.25,10,12s-5.51,10.2-12.89,9.22c-7.2-1-10.3-6.19-9.54-11.9m2-14.13c-8.08.88-13.82,5.32-14.76,12.36-1.56,11.7,8.86,18.36,21.57,20.05s25-3,26.52-14.41c.88-6.59-3.91-12.8-11.38-15.08l0-.15v.07c6.54-.86,10.88-4.28,11.63-9.91,1.26-9.48-10-14.37-19.54-15.63-9.33-1.24-21.68,1.19-22.87,10.15-.65,4.89,3.11,10.59,8.84,12.4Zm13.12-16.35c5.78.77,9.64,3.69,9,8.73-.63,4.74-5.61,6.79-10.85,6.1-5.69-.75-9.4-4.11-8.76-8.93s5.22-6.62,10.64-5.9" transform="translate(-94.24 -382.81)"/>
        <path class="cls-3" d="M414.22,937.89c-.76-6,1.85-11.15,9.67-12.14,7.21-.91,12,3.31,12.71,9S433.86,946,426.48,947c-7.2.91-11.54-3.36-12.26-9.07m-1.7-14.17c-7.59,2.92-12,8.67-11.12,15.71,1.48,11.71,13.25,15.5,26,13.89s23.41-9.28,22-20.69c-.83-6.6-7-11.39-14.85-11.68l0-.15v.07c6.1-2.5,9.43-6.91,8.72-12.55-1.2-9.49-13.36-11.34-22.88-10.14-9.34,1.18-20.67,6.67-19.54,15.64.62,4.89,5.71,9.45,11.71,9.74ZM421,904.58c5.78-.73,10.26,1.12,10.9,6.16.6,4.74-3.69,8-8.94,8.66-5.69.72-10.14-1.58-10.75-6.4s3.36-7.73,8.79-8.41" transform="translate(-94.24 -382.81)"/>
        <path class="cls-3" d="M477.59,890.33c6.64-2.72,12.43.08,14.61,5.41,2.09,5.12-.69,11.34-6.83,13.85-6.31,2.58-11.77-.36-13.83-5.4-2.18-5.32-.66-11.11,6.06-13.85m19.77,17.1c4.15,10.17,2.06,20-9.8,24.83-3.49,1.42-8.42,2.87-10.71-.14l-4.15,1.7,3.25,8a73.42,73.42,0,0,0,14.26-4c18.84-7.7,23.54-24.39,17.3-39.68-5.17-12.66-16.75-20.6-33.43-13.78-11.62,4.75-18.51,14.91-14.41,24.94,3.68,9,14.36,12.37,25.15,8,5.15-2.1,10.8-6.76,11.62-11.61l.17-.07Z" transform="translate(-94.24 -382.81)"/>
        <path class="cls-3" d="M407,424.12c-.5-8.11-8.93-16.25-23.57-15.34l-12.18.76-.88.05.06.88.09,1.55,0,.77.77.06c1.72.13,1.75.61,1.86,2.42l1.24,20.05c.11,1.81.14,2.29-1.55,2.63l-.76.15,0,.77.1,1.55.05.88.88-.05,14.25-.88c15.09-.94,20-9,19.54-16.25m-23.92,11.12-1.3-21,1-.06c8.42-.52,14.82,4,15.24,10.72.38,6.21-3.93,9.63-12.83,10.18Z" transform="translate(-94.24 -382.81)"/>
        <path class="cls-3" d="M391.51,497.36s-14.61.39-19.07,5.17c0,0,20.3,31.62-3.82,32.49-4.79.17-10.64-.8-13-5.32-3.23-6.19-1.27-15.71,5.63-16.6,0,0-11.53-14.61-31.48-5.46C318.32,512.9,317.68,529,319,533.43c0,0-24.76-6-35.26,14.09-3,5.77-5,19,.48,27.46,0,0,7.28-7.86,22.43-10.58,8-1.43,32.16,5.34,39.65,4.61,8.59-.84,27.11-1.2,36.34-21.89,1.64-3.68,2.86-7.93,4-4.94,1.88,5.09,3.26,6.2,4,6.31a2.17,2.17,0,0,0,1.83,0c.77-.12,2.15-1.22,4-6.31,1.11-3,2.32,1.26,4,4.94,9.23,20.69,27.75,21.05,36.34,21.89,7.5.73,31.66-6,39.65-4.61,15.16,2.72,22.43,10.58,22.43,10.58,5.51-8.46,3.5-21.69.48-27.46-10.51-20.06-35.26-14.09-35.26-14.09,1.28-4.46.64-20.54-10.82-25.79-20-9.15-31.49,5.46-31.49,5.46,6.9.88,8.86,10.4,5.63,16.6-2.35,4.52-8.21,5.49-13,5.32-24.13-.87-3.82-32.49-3.82-32.49-4.46-4.78-19.07-5.17-19.07-5.17" transform="translate(-94.24 -382.81)"/>
        <path class="cls-4" d="M496.4,557.68c-1.45-9.17-7.61-16.27-22-18.62-4.42-.72-11.17-.3-17.12.59a26.17,26.17,0,0,0,1.42-8.85c0-6.14-2-12.07-5.79-15.58-6.46-6-15.83-4.21-16.23-4.18l-6.05,1.87s1.38.56,3.18,4.6c1.88,4.22,2.09,10-2.55,16.1-6.47,8.49-15.48,7.94-21.15,7a15.32,15.32,0,0,1-8.85-5s2.66,7,4.25,10.26c1.82,3.69,11.93,24.62,49.87,14.67,20.88-5.47,34.38,1.3,34.51,1.36s5.12,2.72,6.35,4c0,0,1.24-1.42.18-8.14" transform="translate(-94.24 -382.81)"/>
        <path class="cls-4" d="M286.62,557.68c1.45-9.17,7.61-16.27,22-18.62,4.42-.72,11.17-.3,17.12.59a26.13,26.13,0,0,1-1.42-8.85c0-6.14,2-12.07,5.79-15.58,6.46-6,15.84-4.21,16.23-4.18l6.05,1.87s-1.38.56-3.18,4.6c-1.88,4.22-2.09,10,2.55,16.1,6.47,8.49,15.48,7.94,21.15,7a15.32,15.32,0,0,0,8.85-5s-2.66,7-4.24,10.26c-1.82,3.69-11.93,24.62-49.88,14.67-20.88-5.47-34.38,1.3-34.51,1.36s-5.12,2.72-6.35,4c0,0-1.24-1.42-.18-8.14" transform="translate(-94.24 -382.81)"/>
        <path class="cls-4" d="M391.17,538.22a1.66,1.66,0,0,1-1.62-1.35s-3.34-13.87-4.93-19-4.25-11.32-4.25-11.32c2.39-1.86,6.68-2.74,10.8-2.72h.68c4.13,0,8.41.87,10.8,2.72,0,0-2.65,6.19-4.25,11.32s-4.93,19-4.93,19a1.66,1.66,0,0,1-1.62,1.35Z" transform="translate(-94.24 -382.81)"/>
        <path class="cls-3" d="M393.23,866.39s-9.13,0-14.67-2.57c-14.82-7-8.64-21.37-8.64-21.37-7.78,5.66-20.09.3-23.88-13.53-4.61-16.86,3.63-27.33,3.63-27.33-6.11-3-17,1.92-18.6,12.36a38.28,38.28,0,0,0,2.72,21.52s-4.31,2.95-14.22-1.06c-13.81-5.59-11.87-22.5-11.87-22.5a21.94,21.94,0,0,1-21.78-3.52c-18.79-15.25-17.64-31-17.64-31s23.28,9.29,34.78,7.89c8.41-1,18.75-4.13,27.24-5.48,21-3.36,40.09,16.11,40.09,16.11-6.05-23.29,18.45-24.58,22.84-24.46s28.88,1.17,22.84,24.46c0,0,19-19.48,40.09-16.11,8.49,1.36,18.83,4.46,27.24,5.48,11.49,1.4,34.78-7.89,34.78-7.89s1.15,15.7-17.64,31a21.94,21.94,0,0,1-21.78,3.52s1.94,16.92-11.87,22.5c-9.9,4-14.22,1.06-14.22,1.06A38.27,38.27,0,0,0,455.39,814c-1.57-10.45-12.5-15.36-18.6-12.36,0,0,8.24,10.47,3.63,27.33-3.78,13.83-16.1,19.19-23.88,13.53,0,0,6.19,14.41-8.64,21.37-5.54,2.6-14.67,2.57-14.67,2.57" transform="translate(-94.24 -382.81)"/>
        <path class="cls-4" d="M323.41,786.21c22.06-7.55,40.15,10.08,40.15,10.08s-7.07-1.59-11.32,2.12c0,0-11.46-5.67-21.05,4.95-8.83,9.77-2.72,29-2.72,29s-21.15-.71-15.28-26.63c-3.29.71-8.93,2.79-13.76,2.86-15.26.22-26.31-24.76-26.31-24.76s21.67,12.16,50.3,2.36" transform="translate(-94.24 -382.81)"/>
        <path class="cls-4" d="M428.84,801.29a20.66,20.66,0,0,0-12.12,0c-2.69,1-11.09,8.51-11.09,8.51a15.24,15.24,0,0,1,3,8.65,12.94,12.94,0,0,1-2.83,8.49s10.09,9.37,11.73,10.25c5.12,2.77,9.94,2.82,13.35-.85,8.71-9.4,6.9-22.53,3.81-29.44a10,10,0,0,0-5.8-5.56" transform="translate(-94.24 -382.81)"/>
        <path class="cls-4" d="M463.06,786.21c-22.07-7.55-40.15,10.08-40.15,10.08s7.08-1.59,11.32,2.12c0,0,11.46-5.67,21,4.95,8.83,9.77,2.72,29,2.72,29s21.16-.71,15.28-26.63c3.29.71,8.93,2.79,13.76,2.86,15.26.22,26.31-24.76,26.31-24.76s-21.67,12.16-50.3,2.36" transform="translate(-94.24 -382.81)"/>
        <path class="cls-4" d="M357.62,801.29a20.67,20.67,0,0,1,12.13,0c2.69,1,11.09,8.51,11.09,8.51a15.24,15.24,0,0,0-3,8.65,12.94,12.94,0,0,0,2.83,8.49s-10.09,9.37-11.73,10.25c-5.12,2.77-9.94,2.82-13.35-.85-8.71-9.4-6.9-22.53-3.81-29.44a10,10,0,0,1,5.8-5.56" transform="translate(-94.24 -382.81)"/>
        <path class="cls-4" d="M410.17,782.85c-4.57-5.12-10.83-6.68-16.72-6.56H393c-5.9-.12-12.15,1.44-16.72,6.56-3.33,3.74-3.08,11.85-.88,15.92,2.31,4.28,7.78,7.89,7.78,7.89s3.13-3,10-3.1,10,3.1,10,3.1,5.48-3.61,7.78-7.89c2.2-4.07,2.45-12.18-.88-15.92" transform="translate(-94.24 -382.81)"/>
        <path class="cls-4" d="M411.77,841.75c-1.28-2.56-8.49-11.85-8.49-11.85a20.41,20.41,0,0,1-20.08,0s-7.21,9.29-8.49,11.85c-.66,1.31-1.51,6.45,0,10.69a10,10,0,0,0,5.56,5.8A34.36,34.36,0,0,0,393,861.07v0h.44v0a34.33,34.33,0,0,0,12.75-2.83,10,10,0,0,0,5.56-5.8c1.52-4.24.66-9.38,0-10.69" transform="translate(-94.24 -382.81)"/>
    </g>
</svg>