<?xml version="1.0" encoding="UTF-8"?>
<svg width="241px" height="62px" viewBox="0 0 241 62" version="1.1" xmlns="http://www.w3.org/2000/svg" xmlns:xlink="http://www.w3.org/1999/xlink">
    <title>Group 6</title>
    <defs>
        <linearGradient x1="50%" y1="0%" x2="50%" y2="100%" id="linearGradient-1">
            <stop stop-color="#F84A77" offset="0%"></stop>
            <stop stop-color="#EE243C" offset="100%"></stop>
        </linearGradient>
    </defs>
    <g id="Page-1" stroke="none" stroke-width="1" fill="none" fill-rule="evenodd">
        <g id="Artboard" transform="translate(-263, -164)">
            <g id="Group-6" transform="translate(263, 164)">
                <g id="Group-5" transform="translate(69.9, 2)" fill="#FFFFFF" fill-rule="nonzero">
                    <polygon id="XMLID_20_" points="72.8 2.8 72.8 16.75 55.4 7.10542736e-15 55.4 30.6 62.6 30.6 62.6 16.5 80 33.3 80 2.8"></polygon>
                    <rect id="XMLID_19_" x="113" y="2.8" width="7.2" height="27.8"></rect>
                    <path d="M92.6,9.1 L96.3,9.1 C97.3,9.1 98.1,9.4 98.7,10 C99.3,10.6 99.6,11.4 99.6,12.4 C99.6,13.4 99.3,14.2 98.7,14.8 C98.1,15.4 97.3,15.7 96.3,15.7 L92.6,15.7 L92.6,9.1 Z M109.9,30.6 L102.6,20.3 C105.5,18.5 107,15.9 107,12.4 C107,9.5 106,7.2 104,5.5 C102,3.7 99.4,2.9 96.3,2.9 L85.4,2.9 L85.4,30.7 L92.6,30.7 L92.6,22 L95.6,22 L101.9,30.6 L109.9,30.6 Z" id="XMLID_40_"></path>
                    <path d="M134.9,2.3 C132,2.3 129.7,3 127.9,4.5 C126.1,6 125.2,8 125.2,10.5 C125.2,14 127.6,16.8 132.2,18.9 L135.1,20.1 C136.2,20.6 136.9,21 137.3,21.3 C137.7,21.6 137.9,22.1 137.9,22.7 C137.9,24 137,24.7 135,24.7 C132.6,24.7 130.6,23.5 128.8,21.1 L123.9,24.8 C124.9,26.7 126.4,28.2 128.3,29.3 C130.2,30.4 132.4,31 134.9,31 C137.8,31 140.3,30.2 142.2,28.7 C144.1,27.1 145.1,25 145.1,22.4 C145.1,20.4 144.5,18.8 143.4,17.5 C142.2,16.2 140.5,15.1 138,14 L134.8,12.6 C133.9,12.3 133.3,11.9 132.9,11.6 C132.6,11.3 132.4,10.9 132.4,10.4 C132.4,9.2 133.3,8.6 134.9,8.6 C135.9,8.6 136.7,8.8 137.4,9.3 C138.1,9.8 138.8,10.5 139.5,11.5 L144.3,7.8 C142.5,4.2 139.3,2.3 134.9,2.3 L134.9,2.3 Z" id="XMLID_16_"></path>
                    <path d="M50,2.8 L42.8,2.8 L42.8,19.3 C42.8,20.9 42.3,22.1 41.4,23 C40.4,23.9 39.2,24.4 37.7,24.4 C36.2,24.4 35,23.9 34.1,23 C33.2,22.1 32.7,20.8 32.7,19.3 L32.7,2.8 L25.5,2.8 L25.5,18.8 C25.5,22.5 26.6,25.4 29,27.7 C31.3,30 34.2,31.1 37.8,31.1 C41.4,31.1 44.3,30 46.6,27.7 C48.9,25.5 50.1,22.5 50.1,18.8 L50.1,2.8 L50,2.8 Z" id="XMLID_15_"></path>
                    <path d="M167.971607,9.31733785 L156.8,9.4 L156.85,13.7 L163.85,13.7 L163.85,19.5 L156.85,19.5 L156.8,24.1 L167.825287,24.018785 C168.3052,26.3054147 169.014866,28.507517 169.929023,30.5998298 L149.5,30.6 L149.5,2.8 L170.199021,2.79827494 C169.246394,4.86764126 168.49552,7.04906407 167.971607,9.31733785 Z" id="Combined-Shape"></path>
                    <path d="M11,2.3 C8.1,2.3 5.8,3 4,4.5 C2.2,6 1.3,8 1.3,10.5 C1.3,14 3.7,16.8 8.3,18.9 L11.2,20.1 C12.3,20.6 13,21 13.4,21.3 C13.8,21.6 14,22.1 14,22.7 C14,24 13.1,24.7 11.1,24.7 C8.7,24.7 6.7,23.5 4.9,21.1 L2.84217094e-14,24.8 C1,26.7 2.5,28.2 4.4,29.3 C6.3,30.4 8.5,31 11,31 C13.9,31 16.4,30.2 18.3,28.7 C20.2,27.1 21.2,25 21.2,22.4 C21.2,20.4 20.6,18.8 19.5,17.5 C18.3,16.2 16.6,15.1 14.1,14 L10.9,12.6 C10,12.3 9.4,11.9 9,11.6 C8.7,11.3 8.5,10.9 8.5,10.4 C8.5,9.2 9.4,8.6 11,8.6 C12,8.6 12.8,8.8 13.5,9.3 C14.2,9.8 14.9,10.5 15.6,11.5 L20.4,7.8 C18.6,4.2 15.4,2.3 11,2.3 L11,2.3 Z" id="XMLID_2_"></path>
                </g>
                <g id="Group" transform="translate(76, 44)" fill="#FFFFFF" fill-rule="nonzero">
                    <polygon id="XMLID_14_" points="153.560784 0.933333333 152.133333 0.933333333 152.133333 13.0666667 159.6 13.0666667 159.6 11.8005797 153.560784 11.8005797"></polygon>
                    <polygon id="XMLID_13_" points="116 0.933333333 112.053333 10.4943089 108 0.933333333 106.4 0.933333333 112.053333 14 117.6 0.933333333"></polygon>
                    <rect id="XMLID_12_" x="89.6" y="0.933333333" width="1.86666667" height="12.1333333"></rect>
                    <polygon id="XMLID_11_" points="73.7333333 0.933333333 63.4666667 0.933333333 63.4666667 2.19942029 67.8975439 2.19942029 67.8975439 13.0666667 69.4105263 13.0666667 69.4105263 2.19942029 73.7333333 2.19942029"></polygon>
                    <path d="M47.2383333,0.933333333 C46.1883333,0.933333333 45.3483333,1.2627451 44.7183333,1.81176471 C43.9833333,2.36078431 43.6683333,3.23921569 43.6683333,4.22745098 C43.6683333,4.99607843 43.8783333,5.65490196 44.4033333,6.20392157 C44.9283333,6.75294118 45.5583333,7.19215686 46.3983333,7.63137255 L47.7633333,8.29019608 C48.4983333,8.61960784 49.0233333,8.94901961 49.3383333,9.27843137 C49.6533333,9.60784314 49.8633333,10.0470588 49.8633333,10.4862745 C49.8633333,11.145098 49.6533333,11.5843137 49.1283333,12.0235294 C48.7083333,12.4627451 48.0783333,12.572549 47.3433333,12.572549 C45.9783333,12.572549 44.8233333,11.8039216 43.9833333,10.3764706 L42.9333333,11.254902 C43.4583333,12.1333333 43.9833333,12.7921569 44.8233333,13.2313725 C45.5583333,13.6705882 46.5033333,14 47.4483333,14 C48.6033333,14 49.5483333,13.6705882 50.2833333,13.0117647 C51.0183333,12.3529412 51.3333333,11.4745098 51.3333333,10.4862745 C51.3333333,9.71764706 51.1233333,9.05882353 50.5983333,8.50980392 C50.1783333,7.96078431 49.4433333,7.52156863 48.4983333,6.97254902 L47.1333333,6.31372549 C46.8183333,6.20392157 46.5033333,5.98431373 46.3983333,5.8745098 C46.1883333,5.76470588 45.9783333,5.65490196 45.7683333,5.43529412 C45.5583333,5.21568627 45.4533333,5.10588235 45.3483333,4.88627451 C45.2433333,4.66666667 45.2433333,4.44705882 45.2433333,4.11764706 C45.2433333,3.56862745 45.4533333,3.12941176 45.8733333,2.8 C46.2933333,2.47058824 46.8183333,2.36078431 47.3433333,2.36078431 C48.4983333,2.36078431 49.4433333,2.90980392 50.0733333,3.89803922 L51.1233333,3.12941176 C50.7033333,2.47058824 50.1783333,2.03137255 49.5483333,1.59215686 C48.8133333,1.15294118 48.0783333,0.933333333 47.2383333,0.933333333 L47.2383333,0.933333333 Z" id="XMLID_10_"></path>
                    <path d="M29.645614,0.933333333 L21.4666667,0.933333333 L21.4666667,2.21052632 L29.645614,2.21052632 L29.645614,0.933333333 Z M21.4666667,5.93567251 L21.4666667,13.0666667 L29.8666667,13.0666667 L29.8666667,11.7894737 L23.0140351,11.7894737 L23.0140351,7.2128655 L29.5,7.25 L29.5,5.97280702 L21.4666667,5.93567251 Z" id="XMLID_30_"></path>
                    <polygon id="XMLID_7_" points="7.46666667 0.933333333 0 0.933333333 0 13.0666667 1.45185185 13.0666667 1.45185185 7.6857971 6.53333333 7.6857971 6.53333333 6.41971014 1.45185185 6.41971014 1.45185185 2.19942029 7.46666667 2.19942029"></polygon>
                    <polygon id="XMLID_6_" points="138.384615 13.0666667 134.4 3.50569106 130.415385 13.0666667 128.8 13.0666667 134.4 0 140 13.0666667"></polygon>
                </g>
                <g id="Group-2" transform="translate(0, 0)">
                    <path d="M31.5,-3.55271368e-15 C48.8304498,-3.55271368e-15 63,14.0605536 63,31.5 C63,33.1349481 62.8910035,34.7698962 62.6730104,36.2958478 L43.3806228,36.2958478 C44.0346021,34.7698962 44.3615917,33.1349481 44.3615917,31.5 C44.3615917,24.4152249 38.5847751,18.6384083 31.5,18.6384083 C24.3062284,18.5294118 18.5294118,24.3062284 18.5294118,31.5 C18.5294118,33.2439446 18.8564014,34.8788927 19.5103806,36.2958478 L0.326989619,36.2958478 C0.10899654,34.6608997 -2.13162821e-14,33.1349481 -2.13162821e-14,31.5 C-2.13162821e-14,14.0605536 14.0605536,-3.55271368e-15 31.5,-3.55271368e-15 L31.5,-3.55271368e-15 Z" id="XMLID_24_-path" fill="url(#linearGradient-1)"></path>
                    <path d="M59.5328474,46 C53.8590886,55.5319149 43.3058971,62 31.3910035,62 C19.4761098,62 9.03639353,55.6453901 3.24915949,46 L59.5328474,46 Z" id="XMLID_24_-path" fill="#EE243C"></path>
                </g>
            </g>
        </g>
    </g>
</svg>